<?xml version="1.0" encoding="UTF-8" standalone="no"?>
<!DOCTYPE svg PUBLIC "-//W3C//DTD SVG 1.1//EN" "http://www.w3.org/Graphics/SVG/1.1/DTD/svg11.dtd">
<svg width="100%" height="100%" viewBox="0 0 256 256" version="1.1" xmlns="http://www.w3.org/2000/svg" xmlns:xlink="http://www.w3.org/1999/xlink" xml:space="preserve" xmlns:affinity="https://www.affinity.studio/" style="fill-rule:evenodd;clip-rule:evenodd;stroke-linecap:round;stroke-linejoin:round;">
    <g transform="matrix(1,0,0,1,103,111.5)">
        <g transform="matrix(1,0,0,1,-50,-50)">
            <g transform="matrix(4.166667,0,0,4.166667,0,0)">
                <path d="M21,15C21,16.097 20.097,17 19,17L7,17L3,21L3,5C3,3.903 3.903,3 5,3L19,3C20.097,3 21,3.903 21,5L21,15Z" style="fill:none;fill-rule:nonzero;stroke:black;stroke-width:2px;"/>
            </g>
        </g>
    </g>
    <g transform="matrix(1,0,0,1,153,144.5)">
        <g transform="matrix(1,0,0,1,-50,-50)">
            <g transform="matrix(4.166667,0,0,4.166667,0,0)">
                <path d="M21,15C21,16.097 20.097,17 19,17L7,17L3,21L3,5C3,3.903 3.903,3 5,3L19,3C20.097,3 21,3.903 21,5L21,15Z" style="fill:none;fill-rule:nonzero;stroke:black;stroke-width:2px;"/>
            </g>
        </g>
    </g>
    <g transform="matrix(1,0,0,1,66.971029,43.636333)">
        <text x="26px" y="68px" style="font-family:'PAGKAKI-Regular', 'PAGKAKI';font-size:34.901px;">A</text>
    </g>
    <g transform="matrix(0.01005,0,0,0.01005,158,136.75)">
        <g transform="matrix(1,0,0,1,-1666.666667,-1666.666667)">
            <g transform="matrix(138.888889,0,0,138.888889,0,0)">
                <path d="M20,6L4,6M12,4L12,6M8.096,9.979C8.575,11.554 9.508,14.098 12.144,16.394M12.144,16.394C13.726,17.773 15.921,19.062 19,20M12.144,16.394C15.239,13.246 17.069,8.77 17.069,6M12.144,16.394C10.21,18.36 7.784,19.808 5,20" style="fill:none;fill-rule:nonzero;stroke:black;stroke-width:2px;"/>
            </g>
        </g>
    </g>
</svg>
